<svg id="Layer_1" data-name="Layer 1" xmlns="http://www.w3.org/2000/svg" xmlns:xlink="http://www.w3.org/1999/xlink" viewBox="0 0 1080 1080"><defs><style>.cls-1{fill:none;}.cls-2{fill:#c21010;}.cls-3{fill:#ffcdac;}.cls-4{fill:#0f03ff;}.cls-5{fill:#ffbc53;}.cls-6{clip-path:url(#clip-path);}.cls-7{fill:#fff;}</style><clipPath id="clip-path"><rect class="cls-1" x="75.15" y="75.15" width="929.7" height="929.7"/></clipPath></defs><path class="cls-2" d="M609,340.26a148.9,148.9,0,1,1-148.9-148.9A148.9,148.9,0,0,1,609,340.26Zm0,0"/><path class="cls-3" d="M507.32,321.19V333a47.21,47.21,0,1,1-94.42,0V321.19a47.21,47.21,0,1,1,94.42,0Zm0,0"/><path class="cls-4" d="M460.11,380.21a108.94,108.94,0,0,0-101.37,69.05,148.75,148.75,0,0,0,202.76,0,109,109,0,0,0-101.39-69.05Zm0,0"/><path class="cls-5" d="M867.89,366.75l10.37-18a58.11,58.11,0,1,1,100.65,58.11L750.41,802.67,649.76,744.56l98.57-170.72Zm0,0"/><path class="cls-2" d="M957.64,327.51a58.1,58.1,0,0,0-79.38,21.27l-27,46.73,100.65,58.11,27-46.73a58.11,58.11,0,0,0-21.27-79.38Zm0,0"/><path class="cls-4" d="M750.41,802.67l-116.74,86,16.09-144.08Zm0,0"/><g class="cls-6"><path class="cls-7" d="M826.91,798.44a18.17,18.17,0,0,0-18.16,18.16V950.38a18.17,18.17,0,0,1-18.16,18.15h-661a18.17,18.17,0,0,1-18.15-18.15V129.62a18.17,18.17,0,0,1,18.15-18.15h661a18.17,18.17,0,0,1,18.16,18.15V327.09a18.16,18.16,0,0,0,36.32,0V129.62a54.54,54.54,0,0,0-54.48-54.47h-661a54.54,54.54,0,0,0-54.47,54.47V950.38a54.54,54.54,0,0,0,54.47,54.47h661a54.54,54.54,0,0,0,54.48-54.47V816.6a18.17,18.17,0,0,0-18.16-18.16Zm0,0"/><path class="cls-7" d="M627.17,340.26c0-92.12-74.94-167.06-167.06-167.06s-167,74.94-167,167.06a166.57,166.57,0,0,0,52.45,121.42,17.72,17.72,0,0,0,1.95,1.82,166.72,166.72,0,0,0,225.31,0,17.75,17.75,0,0,0,2-1.82,166.6,166.6,0,0,0,52.44-121.42ZM460.11,209.52A130.67,130.67,0,0,1,565.33,417.76a125.89,125.89,0,0,0-53.5-44.84A65,65,0,0,0,525.48,333V321.19a65.37,65.37,0,1,0-130.74,0V333a65,65,0,0,0,13.67,39.92,125.89,125.89,0,0,0-53.5,44.84,130,130,0,0,1-25.54-77.5c0-72.09,58.66-130.74,130.74-130.74ZM431.06,333V321.19a29.06,29.06,0,0,1,58.11,0V333a29.06,29.06,0,0,1-58.11,0ZM381.14,444.37a90.79,90.79,0,0,1,158,0,130.42,130.42,0,0,1-158,0Zm177,426.11H460.11a18.16,18.16,0,0,0,0,36.32h98.06a18.16,18.16,0,1,0,0-36.32Zm0-101.69H300.32a18.16,18.16,0,1,0,0,36.32H558.17a18.16,18.16,0,1,0,0-36.32Zm0-101.68H300.32a18.16,18.16,0,1,0,0,36.31H558.17a18.16,18.16,0,1,0,0-36.31ZM235.6,570.75a18.11,18.11,0,1,0,5.33,12.83,18.22,18.22,0,0,0-5.33-12.83Zm0,101.68a18.12,18.12,0,1,0,5.33,12.84,18.35,18.35,0,0,0-5.33-12.84Zm-12.85,96.36a18.2,18.2,0,1,0,12.85,5.33,18.25,18.25,0,0,0-12.85-5.33ZM558.17,565.42H300.32a18.16,18.16,0,1,0,0,36.32H558.17a18.16,18.16,0,0,0,0-36.32ZM966.72,311.78A76.27,76.27,0,0,0,862.55,339.7L634,735.48a18.1,18.1,0,0,0-2.32,7.07L615.63,886.62a18.16,18.16,0,0,0,28.82,16.64l116.72-86a17.78,17.78,0,0,0,5-5.54L994.64,416a76.37,76.37,0,0,0-27.92-104.19Zm-302,462.4,52.55,30.33-60.95,44.9Zm79,3.68-69.19-39.94,183.37-317.6,69.19,39.94Zm219.42-380-17.89,31L876.1,388.86l17.89-31a39.95,39.95,0,0,1,69.19,39.95Zm0,0"/></g></svg>