<svg width="426" height="363" viewBox="0 0 426 363" fill="none" xmlns="http://www.w3.org/2000/svg">
<path d="M176 171H16C11.7565 171 7.68687 172.686 4.68629 175.686C1.68571 178.687 0 182.757 0 187V347C0 351.243 1.68571 355.313 4.68629 358.314C7.68687 361.314 11.7565 363 16 363H176C180.243 363 184.313 361.314 187.314 358.314C190.314 355.313 192 351.243 192 347V187C192 182.757 190.314 178.687 187.314 175.686C184.313 172.686 180.243 171 176 171ZM136 275H104V307C104 309.122 103.157 311.157 101.657 312.657C100.157 314.157 98.1217 315 96 315C93.8783 315 91.8434 314.157 90.3431 312.657C88.8429 311.157 88 309.122 88 307V275H56C53.8783 275 51.8434 274.157 50.3431 272.657C48.8429 271.157 48 269.122 48 267C48 264.878 48.8429 262.843 50.3431 261.343C51.8434 259.843 53.8783 259 56 259H88V227C88 224.878 88.8429 222.843 90.3431 221.343C91.8434 219.843 93.8783 219 96 219C98.1217 219 100.157 219.843 101.657 221.343C103.157 222.843 104 224.878 104 227V259H136C138.122 259 140.157 259.843 141.657 261.343C143.157 262.843 144 264.878 144 267C144 269.122 143.157 271.157 141.657 272.657C140.157 274.157 138.122 275 136 275Z" fill="#C21010"/>
<path d="M218.549 162.492L332.54 141.416L316.611 118.146L409.882 54.2965L388.643 23.2699L295.371 87.1194L279.442 63.8495L218.549 162.492Z" fill="black"/>
</svg>
