<svg width="416" height="114" viewBox="0 0 416 114" fill="none" xmlns="http://www.w3.org/2000/svg">
<rect x="1" y="32" width="414" height="65" rx="10" fill="#FCFCFC"/>
<rect x="0.5" y="31.5" width="415" height="66" rx="10.5" stroke="#454444" stroke-opacity="0.49"/>
<path d="M12.708 22V6H22.3018V7.71875H14.6455V13.125H21.583V14.8437H14.6455V22H12.708ZM32.1807 17.0937V10H34.0244V22H32.1807V19.9687H32.0557C31.7744 20.5781 31.3369 21.0964 30.7432 21.5234C30.1494 21.9453 29.3994 22.1563 28.4932 22.1563C27.7432 22.1563 27.0765 21.9922 26.4932 21.6641C25.9098 21.3307 25.4515 20.8307 25.1182 20.1641C24.7848 19.4922 24.6182 18.6458 24.6182 17.625V10H26.4619V17.5C26.4619 18.375 26.7067 19.0729 27.1963 19.5938C27.6911 20.1146 28.3213 20.375 29.0869 20.375C29.5452 20.375 30.0114 20.2578 30.4854 20.0234C30.9645 19.7891 31.3656 19.4297 31.6885 18.9453C32.0166 18.4609 32.1807 17.8437 32.1807 17.0937ZM39.2451 6V22H37.4014V6H39.2451ZM44.4658 6V22H42.6221V6H44.4658ZM66.9678 6V22H65.0928L56.374 9.4375H56.2178V22H54.2803V6H56.1553L64.9053 18.5937H65.0615V6H66.9678ZM74.126 22.2813C73.3656 22.2813 72.6755 22.138 72.0557 21.8516C71.4359 21.5599 70.9437 21.1406 70.5791 20.5938C70.2145 20.0417 70.0322 19.375 70.0322 18.5937C70.0322 17.9062 70.1676 17.349 70.4385 16.9219C70.7093 16.4896 71.0713 16.151 71.5244 15.9062C71.9775 15.6615 72.4775 15.4792 73.0244 15.3594C73.5765 15.2344 74.1312 15.1354 74.6885 15.0625C75.4176 14.9687 76.0088 14.8984 76.4619 14.8516C76.9202 14.7995 77.2536 14.7135 77.4619 14.5937C77.6755 14.474 77.7822 14.2656 77.7822 13.9687V13.9062C77.7822 13.1354 77.5713 12.5365 77.1494 12.1094C76.7327 11.6823 76.0999 11.4687 75.251 11.4687C74.3708 11.4687 73.6807 11.6615 73.1807 12.0469C72.6807 12.4323 72.3291 12.8437 72.126 13.2812L70.376 12.6562C70.6885 11.9271 71.1051 11.3594 71.626 10.9531C72.152 10.5417 72.7249 10.2552 73.3447 10.0937C73.9697 9.92708 74.5843 9.84375 75.1885 9.84375C75.5739 9.84375 76.0166 9.89062 76.5166 9.98437C77.0218 10.0729 77.5088 10.2578 77.9775 10.5391C78.4515 10.8203 78.8447 11.2448 79.1572 11.8125C79.4697 12.3802 79.626 13.1406 79.626 14.0938V22H77.7822V20.375H77.6885C77.5635 20.6354 77.3551 20.9141 77.0635 21.2109C76.7718 21.5078 76.3838 21.7604 75.8994 21.9687C75.415 22.1771 74.8239 22.2813 74.126 22.2813ZM74.4072 20.625C75.1364 20.625 75.751 20.4818 76.251 20.1953C76.7562 19.9089 77.1364 19.5391 77.3916 19.0859C77.652 18.6328 77.7822 18.1562 77.7822 17.6562V15.9687C77.7041 16.0625 77.5322 16.1484 77.2666 16.2266C77.0062 16.2995 76.7041 16.3646 76.3604 16.4219C76.0218 16.474 75.6911 16.5208 75.3682 16.5625C75.0505 16.599 74.7926 16.6302 74.5947 16.6562C74.1156 16.7187 73.6676 16.8203 73.251 16.9609C72.8395 17.0964 72.5062 17.3021 72.251 17.5781C72.001 17.849 71.876 18.2187 71.876 18.6875C71.876 19.3281 72.113 19.8125 72.5869 20.1406C73.0661 20.4635 73.6729 20.625 74.4072 20.625ZM82.9912 22V10H84.7725V11.875H84.9287C85.1787 11.2344 85.5824 10.737 86.1396 10.3828C86.6969 10.0234 87.3662 9.84375 88.1475 9.84375C88.9391 9.84375 89.598 10.0234 90.124 10.3828C90.6553 10.737 91.0693 11.2344 91.3662 11.875H91.4912C91.7985 11.2552 92.2594 10.763 92.874 10.3984C93.4886 10.0286 94.2256 9.84375 95.085 9.84375C96.1579 9.84375 97.0355 10.1797 97.7178 10.8516C98.4001 11.5182 98.7412 12.5573 98.7412 13.9687V22H96.8975V13.9687C96.8975 13.0833 96.6553 12.4505 96.1709 12.0703C95.6865 11.6901 95.1162 11.5 94.46 11.5C93.6162 11.5 92.9626 11.7552 92.499 12.2656C92.0355 12.7708 91.8037 13.4115 91.8037 14.1875V22H89.9287V13.7812C89.9287 13.099 89.7074 12.5495 89.2646 12.1328C88.8219 11.7109 88.2516 11.5 87.5537 11.5C87.0745 11.5 86.6266 11.6276 86.21 11.8828C85.7985 12.138 85.4652 12.4922 85.21 12.9453C84.96 13.3932 84.835 13.9115 84.835 14.5V22H82.9912ZM107.144 22.25C105.987 22.25 104.99 21.9948 104.151 21.4844C103.318 20.9688 102.675 20.25 102.222 19.3281C101.774 18.401 101.55 17.3229 101.55 16.0938C101.55 14.8646 101.774 13.7812 102.222 12.8437C102.675 11.901 103.305 11.1667 104.112 10.6406C104.925 10.1094 105.873 9.84375 106.956 9.84375C107.581 9.84375 108.198 9.94792 108.808 10.1562C109.417 10.3646 109.972 10.7031 110.472 11.1719C110.972 11.6354 111.37 12.25 111.667 13.0156C111.964 13.7812 112.112 14.724 112.112 15.8437V16.625H102.862V15.0312H110.237C110.237 14.3542 110.102 13.75 109.831 13.2187C109.565 12.6875 109.185 12.2682 108.69 11.9609C108.201 11.6536 107.623 11.5 106.956 11.5C106.222 11.5 105.586 11.6823 105.05 12.0469C104.519 12.4062 104.11 12.875 103.823 13.4531C103.537 14.0312 103.394 14.651 103.394 15.3125V16.375C103.394 17.2813 103.55 18.0495 103.862 18.6797C104.18 19.3047 104.62 19.7812 105.183 20.1094C105.745 20.4323 106.399 20.5938 107.144 20.5938C107.628 20.5938 108.065 20.526 108.456 20.3906C108.852 20.25 109.193 20.0417 109.479 19.7656C109.766 19.4844 109.987 19.1354 110.144 18.7187L111.925 19.2188C111.737 19.8229 111.422 20.3542 110.979 20.8125C110.537 21.2656 109.99 21.6198 109.339 21.875C108.688 22.125 107.956 22.25 107.144 22.25Z" fill="#C21010"/>
<path d="M187.91 15.4545L223 50.5443L257.908 15.6363C258.679 14.8156 259.608 14.159 260.639 13.706C261.67 13.253 262.782 13.0129 263.908 13C266.319 13 268.631 13.9578 270.336 15.6626C272.041 17.3674 272.999 19.6797 272.999 22.0906C273.02 23.2052 272.813 24.3123 272.391 25.344C271.969 26.3757 271.34 27.3104 270.544 28.0905L235.181 62.9985L270.544 98.3611C272.042 99.8269 272.921 101.812 272.999 103.906C272.999 106.317 272.041 108.63 270.336 110.334C268.631 112.039 266.319 112.997 263.908 112.997C262.749 113.045 261.593 112.852 260.514 112.429C259.434 112.007 258.454 111.364 257.635 110.543L223 75.4527L188.001 110.452C187.233 111.245 186.315 111.878 185.301 112.315C184.287 112.752 183.196 112.984 182.092 112.997C179.681 112.997 177.369 112.039 175.664 110.334C173.959 108.63 173.001 106.317 173.001 103.906C172.98 102.792 173.187 101.685 173.609 100.653C174.031 99.6213 174.66 98.6867 175.456 97.9066L210.819 62.9985L175.456 27.6359C173.958 26.1701 173.079 24.1852 173.001 22.0906C173.001 19.6797 173.959 17.3674 175.664 15.6626C177.369 13.9578 179.681 13 182.092 13C184.274 13.0273 186.365 13.9091 187.91 15.4545Z" fill="black"/>
</svg>
